Anarchie-Regular.sfdir
StartChar: ampersand
Encoding: 38 38 41
Width: 645
VWidth: 0
Flags: MW
LayerCount: 2
Fore
SplineSet
623 187 m 1
 506 96 l 1
 406 184 l 1
 403 99 l 1
 263 22 l 1
 43 63 l 1
 22 225 l 1
 137 406 l 1
 90 494 l 1
 99 594 l 1
 269 688 l 1
 406 553 l 1
 336 474 l 1
 623 187 l 1
EndSplineSet
Validated: 1
EndChar
StartChar: slash
Encoding: 47 47 48
Width: 335
VWidth: 0
Flags: MW
LayerCount: 2
Fore
SplineSet
178 743 m 1
 313 746 l 1
 116 10 l 5
 22 54 l 5
 178 743 l 1
EndSplineSet
Validated: 1
EndChar
StartChar: less
Encoding: 60 60 61
Width: 491
VWidth: 0
Flags: MW
LayerCount: 2
Fore
SplineSet
452 515 m 1
 467 386 l 1
 156 245 l 1
 458 116 l 1
 458 25 l 1
 45 157 l 1
 24 307 l 1
 452 515 l 1
EndSplineSet
Validated: 1
EndChar
StartChar: greater
Encoding: 62 62 62
Width: 448
VWidth: 0
Flags: MW
LayerCount: 2
Fore
SplineSet
70 504 m 5
 421 298 l 1
 424 210 l 1
 33 28 l 1
 24 137 l 1
 242 263 l 1
 56 376 l 1
 70 504 l 5
EndSplineSet
Validated: 1
EndChar
StartChar: question
Encoding: 63 63 27
Width: 540
VWidth: 0
Flags: MW
LayerCount: 2
Fore
SplineSet
96 542 m 1
 22 645 l 1
 146 762 l 1
 409 785 l 1
 518 545 l 1
 313 352 l 1
 325 130 l 1
 190 133 l 1
 184 366 l 1
 351 548 l 1
 298 668 l 1
 187 665 l 1
 201 574 l 1
 96 542 l 1
193 65 m 1
 331 68 l 1
 340 0 l 1
 188 -17 l 1
 193 65 l 1
EndSplineSet
Validated: 1
EndChar
StartChar: A
Encoding: 65 65 0
Width: 674
VWidth: 0
Flags: MW
LayerCount: 2
Fore
SplineSet
22 54 m 1
 280 750 l 1
 463 762 l 1
 652 78 l 1
 517 33 l 1
 442 246 l 1
 265 246 l 1
 127 33 l 1
 22 54 l 1
EndSplineSet
Validated: 1
EndChar
StartChar: E
Encoding: 69 69 4
Width: 550
VWidth: 0
Flags: MW
LayerCount: 2
Fore
SplineSet
114 748 m 1
 502 766 l 1
 528 648 l 1
 249 627 l 5
 200 516 l 1
 376 482 l 1
 376 391 l 1
 189 352 l 1
 202 146 l 1
 461 144 l 1
 428 0 l 1
 22 48 l 1
 114 748 l 1
EndSplineSet
Validated: 1
EndChar
StartChar: H
Encoding: 72 72 7
Width: 595
VWidth: 0
Flags: MW
LayerCount: 2
Fore
SplineSet
89 777 m 1
 227 750 l 1
 251 426 l 1
 416 420 l 1
 428 771 l 1
 572 759 l 1
 560 21 l 1
 404 0 l 1
 400 258 l 1
 215 267 l 1
 185 15 l 1
 22 36 l 1
 89 777 l 1
EndSplineSet
Validated: 1
EndChar
StartChar: K
Encoding: 75 75 10
Width: 606
VWidth: 0
Flags: MW
LayerCount: 2
Fore
SplineSet
22 741 m 1
 176 759 l 1
 209 468 l 1
 458 699 l 1
 568 567 l 1
 341 390 l 1
 584 57 l 1
 442 27 l 1
 209 279 l 1
 209 18 l 1
 67 0 l 1
 22 741 l 1
EndSplineSet
Validated: 1
EndChar
StartChar: Q
Encoding: 81 81 16
Width: 641
VWidth: 0
Flags: MW
LayerCount: 2
Fore
SplineSet
385 756 m 1
 586 606 l 1
 599 273 l 1
 523 177 l 1
 619 99 l 1
 484 0 l 1
 418 78 l 1
 148 90 l 1
 22 444 l 1
 82 729 l 1
 385 756 l 1
EndSplineSet
Validated: 1
EndChar
StartChar: S
Encoding: 83 83 18
Width: 549
VWidth: 0
Flags: MW
LayerCount: 2
Fore
SplineSet
491 722 m 5
 464 616 l 5
 313 622 l 5
 197 571 l 5
 224 464 l 5
 439 422 l 5
 527 305 l 5
 509 76 l 5
 320 2 l 5
 22 59 l 5
 50 209 l 5
 200 173 l 5
 311 185 l 5
 341 296 l 5
 125 374 l 5
 32 548 l 5
 137 722 l 5
 316 767 l 5
 491 722 l 5
EndSplineSet
Validated: 1
EndChar
StartChar: T
Encoding: 84 84 19
Width: 509
VWidth: 0
Flags: MW
LayerCount: 2
Fore
SplineSet
199 21 m 1
 185 573 l 1
 31 588 l 1
 22 732 l 1
 461 759 l 1
 487 618 l 1
 322 576 l 1
 358 42 l 1
 199 21 l 1
EndSplineSet
Validated: 1
EndChar
StartChar: i
Encoding: 105 105 120
Width: 204
VWidth: 0
Flags: MW
LayerCount: 2
Fore
SplineSet
34 776 m 1
 181 756 l 1
 163 29 l 1
 22 26 l 1
 34 776 l 1
EndSplineSet
Validated: 1
EndChar
StartChar: m
Encoding: 109 109 124
Width: 689
VWidth: 0
Flags: MW
LayerCount: 2
Fore
SplineSet
26 -4 m 1
 23 731 l 1
 155 746 l 1
 328 403 l 1
 480 745 l 1
 612 748 l 1
 667 39 l 1
 527 -4 l 1
 515 357 l 1
 410 163 l 1
 299 160 l 1
 185 371 l 1
 182 14 l 1
 26 -4 l 1
EndSplineSet
Validated: 1
EndChar
StartChar: s
Encoding: 115 115 128
Width: 509
VWidth: 0
Flags: MW
LayerCount: 2
Fore
SplineSet
487 642 m 1
 420 557 l 1
 320 595 l 1
 241 583 l 1
 247 504 l 1
 446 372 l 1
 427 102 l 1
 189 2 l 1
 22 140 l 1
 125 248 l 1
 225 163 l 1
 301 187 l 1
 297 305 l 1
 80 454 l 1
 112 700 l 1
 317 768 l 1
 487 642 l 1
EndSplineSet
Validated: 1
EndChar
StartChar: t
Encoding: 116 116 129
Width: 490
VWidth: 0
Flags: MW
LayerCount: 2
Fore
SplineSet
178 12 m 5
 154 639 l 5
 28 653 l 5
 22 756 l 5
 468 771 l 5
 453 662 l 5
 304 656 l 5
 310 9 l 5
 178 12 l 5
EndSplineSet
Validated: 1
EndChar
StartChar: y
Encoding: 121 121 133
Width: 534
VWidth: 0
Flags: MW
LayerCount: 2
Fore
SplineSet
22 752 m 5
 154 764 l 5
 257 471 l 5
 374 767 l 5
 512 731 l 5
 354 406 l 5
 304 14 l 5
 169 25 l 5
 157 412 l 5
 22 752 l 5
EndSplineSet
Validated: 1
EndChar
StartChar: braceright
Encoding: 125 125 72
Width: 366
VWidth: 0
Flags: MW
LayerCount: 2
Fore
SplineSet
63 777 m 1
 227 731 l 1
 256 468 l 1
 344 377 l 1
 262 330 l 1
 172 0 l 1
 25 18 l 1
 22 94 l 1
 122 132 l 1
 178 389 l 1
 154 643 l 1
 72 684 l 1
 63 777 l 1
EndSplineSet
Validated: 1
EndChar
StartChar: exclamdown
Encoding: 161 161 75
Width: 172
VWidth: 0
Flags: MW
LayerCount: 2
Fore
SplineSet
30 298 m 1
 142 298 l 1
 148 -94 l 5
 25 -102 l 5
 30 298 l 1
24 441 m 1
 130 477 l 1
 142 368 l 1
 33 356 l 1
 24 441 l 1
EndSplineSet
Validated: 1
EndChar
StartChar: degree
Encoding: 176 176 79
Width: 292
VWidth: 0
Flags: MW
LayerCount: 2
Fore
SplineSet
101 714 m 1
 244 731 l 1
 268 588 l 1
 159 521 l 1
 24 626 l 1
 101 714 l 1
EndSplineSet
Validated: 1
EndChar
StartChar: multiply
Encoding: 215 215 96
Width: 499
VWidth: 0
Flags: MW
LayerCount: 2
Fore
SplineSet
125 547 m 5
 266 412 l 5
 418 541 l 5
 477 456 l 5
 351 333 l 5
 462 210 l 5
 383 126 l 5
 251 280 l 5
 81 146 l 5
 22 230 l 5
 157 345 l 5
 31 477 l 5
 125 547 l 5
EndSplineSet
Validated: 1
EndChar
StartChar: aacute
Encoding: 225 225 136
Width: 566
VWidth: 0
Flags: MW
LayerCount: 2
Fore
SplineSet
22 22 m 1
 207 748 l 1
 377 745 l 1
 544 46 l 1
 389 16 l 1
 330 218 l 1
 225 218 l 1
 151 16 l 1
 22 22 l 1
257 789 m 1
 340 874 l 5
 400 838 l 1
 324 765 l 1
 257 789 l 1
EndSplineSet
Validated: 1
EndChar
StartChar: odieresis
Encoding: 246 246 150
Width: 607
VWidth: 0
Flags: MW
LayerCount: 2
Fore
SplineSet
295 772 m 1
 523 679 l 5
 585 396 l 1
 529 120 l 1
 345 18 l 1
 119 88 l 1
 22 416 l 1
 93 653 l 1
 295 772 l 1
204 852 m 1
 272 854 l 1
 266 796 l 1
 201 787 l 1
 204 852 l 1
310 852 m 1
 377 860 l 1
 351 790 l 1
 295 796 l 1
 310 852 l 1
EndSplineSet
Validated: 1
EndChar
StartChar: quotereversed
Encoding: 8219 8219 165
Width: 252
VWidth: 0
Flags: MW
LayerCount: 2
Fore
SplineSet
108 843 m 1
 226 702 l 1
 173 635 l 1
 26 778 l 1
 108 843 l 1
EndSplineSet
Validated: 1
EndChar
StartChar: quotedblright
Encoding: 8221 8221 167
Width: 363
VWidth: 0
Flags: MW
LayerCount: 2
Fore
SplineSet
138 837 m 1
 205 805 l 1
 103 629 l 1
 26 670 l 1
 138 837 l 1
267 819 m 1
 337 787 l 1
 246 611 l 1
 176 649 l 1
 267 819 l 1
EndSplineSet
Validated: 1
EndChar
StartChar: ellipsis
Encoding: 8230 8230 173
Width: 597
VWidth: 0
Flags: MW
LayerCount: 2
Fore
SplineSet
105 154 m 1
 179 72 l 1
 120 0 l 1
 41 46 l 1
 26 110 l 1
 105 154 l 1
284 154 m 1
 369 84 l 1
 313 20 l 1
 249 40 l 1
 229 125 l 1
 284 154 l 1
519 154 m 1
 571 63 l 1
 495 0 l 1
 422 58 l 1
 431 134 l 1
 519 154 l 1
EndSplineSet
Validated: 1
EndChar
StartChar: minute
Encoding: 8242 8242 176
Width: 216
VWidth: 0
Flags: MW
LayerCount: 2
Fore
SplineSet
100 811 m 1
 190 813 l 1
 96 641 l 1
 26 670 l 1
 100 811 l 1
EndSplineSet
Validated: 1
EndChar
StartChar: uni2384
Encoding: 9092 9092 187
Width: 625
VWidth: 0
Flags: MW
LayerCount: 2
Fore
SplineSet
24 591 m 1
 436 567 l 1
 436 547 l 1
 588 496 l 1
 607 258 l 1
 440 110 l 1
 363 130 l 1
 20 127 l 1
 24 591 l 1
90 521 m 1
 88 193 l 1
 171 187 l 1
 169 457 l 1
 277 517 l 1
 90 521 l 1
434 484 m 1
 428 200 l 1
 536 304 l 1
 518 461 l 1
 434 484 l 1
362 206 m 1
 375 497 l 1
 241 429 l 1
 226 242 l 1
 362 206 l 1
EndSplineSet
Validated: 1
EndChar
